Description

Sinopse e detalhes

Lucas Nickle (Zach Tyler) é um garotinho de dez anos que acaba de se mudar para uma nova vizinhança. Sem amigos e com uma família ausente, ele é constantemente atacado por uma gangue local. Certo dia, ele joga toda sua raiva para fora e afoga um formigueiro com sua pistola d'água. O menino tem seu tamanho misteriosamente diminuído, até ficar da mesma altura que uma formiga. Ele é então obrigado a trabalhar como escravo na reconstrução do formigueiro que ele mesmo destruiu.

Format : Matroska
Format version : Version 2
File size : 659 MiB
Duration : 1h 29mn
Overall bit rate : 1 034 Kbps
Encoded date : UTC 2013-05-05 12:37:43
Writing application : mkvmerge v5.8.0 ('No Sleep / Pillow') built on Sep 2 2012 15:37:04
Writing library : libebml v1.2.3 + libmatroska v1.3.0

Video
ID : 1
Format : AVC
Format/Info : Advanced Video Codec
Format profile : High@L4.1
Format settings, CABAC : Yes
Format settings, ReFrames : 4 frames
Muxing mode : Header stripping
Codec ID : V_MPEG4/ISO/AVC
Duration : 1h 29mn
Bit rate : 629 Kbps
Width : 720 pixels
Height : 400 pixels
Display aspect ratio : 16:9
Frame rate mode : Constant
Frame rate : 23.976 fps
Color space : YUV
Chroma subsampling : 4:2:0
Bit depth : 8 bits
Scan type : Progressive
Bits/(Pixel*Frame) : 0.091
Stream size : 401 MiB (61%)
Title : Lucas ( by fantasma )
Writing library : x264 core 130 r2273 b3065e6
Encoding settings : cabac=1 / ref=3 / deblock=1:0:0 / analyse=0x3:0x113 / me=hex / subme=7 / psy=1 / psy_rd=1.00:0.00 / mixed_ref=1 / me_range=16 / chroma_me=1 / trellis=1 / 8x8dct=1 / cqm=0 / deadzone=21,11 / fast_pskip=1 / chroma_qp_offset=-2 / threads=3 / lookahead_threads=1 / sliced_threads=0 / nr=0 / decimate=1 / interlaced=0 / bluray_compat=0 / constrained_intra=0 / bframes=3 / b_pyramid=2 / b_adapt=1 / b_bias=0 / direct=1 / weightb=1 / open_gop=0 / weightp=2 / keyint=240 / keyint_min=23 / scenecut=40 / intra_refresh=0 / rc_lookahead=40 / rc=crf / mbtree=1 / crf=23.0 / qcomp=0.60 / qpmin=0 / qpmax=69 / qpstep=4 / vbv_maxrate=62500 / vbv_bufsize=78125 / crf_max=0.0 / nal_hrd=none / ip_ratio=1.40 / aq=1:1.00
Language : Portuguese
Default : Yes
Forced : No

Audio
ID : 2
Format : AC-3
Format/Info : Audio Coding 3
Mode extension : CM (complete main)
Format settings, Endianness : Big
Muxing mode : Header stripping
Codec ID : A_AC3
Duration : 1h 29mn
Bit rate mode : Constant
Bit rate : 384 Kbps
Channel(s) : 6 channels
Channel positions : Front: L C R, Side: L R, LFE
Sampling rate : 48.0 KHz
Bit depth : 16 bits
Compression mode : Lossy
Stream size : 245 MiB (37%)
Title : by fantasma
Language : Portuguese
Default : Yes
Forced : No

Text
ID : 3
Format : UTF-8
Codec ID : S_TEXT/UTF8
Codec ID/Info : UTF-8 Plain Text
Title : Credito
Language : Portuguese
Default : Yes
Forced : No

Menu
00:00:00.000 : en:Chapter 01
00:02:47.434 : en:Chapter 02
00:05:52.434 : en:Chapter 03
00:10:56.734 : en:Chapter 04
00:14:59.568 : en:Chapter 05
00:19:53.235 : en:Chapter 06
00:23:24.569 : en:Chapter 07
00:27:28.569 : en:Chapter 08
00:30:25.236 : en:Chapter 09
00:33:34.070 : en:Chapter 10
00:36:53.570 : en:Chapter 11
00:39:44.570 : en:Chapter 12
00:44:38.770 : en:Chapter 13
00:49:34.737 : en:Chapter 14
00:54:07.071 : en:Chapter 15
00:56:39.238 : en:Chapter 16
00:59:47.772 : en:Chapter 17
01:02:55.239 : en:Chapter 18
01:05:50.439 : en:Chapter 19
01:08:22.606 : en:Chapter 20
01:11:15.906 : en:Chapter 21
01:15:11.607 : en:Chapter 22
01:17:17.774 : en:Chapter 23
01:20:21.907 : en:Chapter 24